<svg width="121" height="39" viewBox="0 0 121 39" fill="none" xmlns="http://www.w3.org/2000/svg">
<path d="M26.7244 27.0742L22.207 38.6937H23.8971L25.2815 35.1158H29.4484L30.8192 38.6937H32.5054L28.0523 27.0742H26.7224H26.7244ZM28.8428 33.559H25.8929L27.3825 29.7547L28.8428 33.559Z" fill="#1B1F27"/>
<path d="M35.8232 27.0742H34.2148V38.6937H35.8232V27.0742Z" fill="#1B1F27"/>
<path d="M46.0004 35.4962L40.2097 27.0742H38.8525V38.6937H40.4589V30.2795L46.2652 38.6937H47.6068V27.0742H46.0004V35.4962Z" fill="#1B1F27"/>
<path d="M12.9091 27.0742H11.2871V38.6937H18.5246V37.1076H12.9091V27.0742Z" fill="#1B1F27"/>
<path d="M4.51732 27.0742L0 38.6937H1.6901L3.07451 35.1158H7.24135L8.61407 38.6937H10.3003L5.84721 27.0742H4.51732ZM6.63774 33.559H3.6898L5.1774 29.7547L6.63774 33.559Z" fill="#1B1F27"/>
<path d="M102.76 4.50071C102.76 3.90374 102.275 3.41797 101.679 3.41797C101.083 3.41797 100.599 3.90374 100.599 4.50071C100.599 5.09768 101.083 5.58345 101.679 5.58345C102.275 5.58345 102.76 5.09768 102.76 4.50071Z" fill="#1B1F27"/>
<path d="M104.144 5.58345C104.74 5.58345 105.227 5.09768 105.227 4.50071C105.227 3.90374 104.742 3.41797 104.144 3.41797C103.546 3.41797 103.063 3.90374 103.063 4.50071C103.063 5.09768 103.548 5.58345 104.144 5.58345Z" fill="#1B1F27"/>
<path d="M73.7219 1.73118C73.7219 1.13421 73.237 0.648438 72.6412 0.648438C72.0454 0.648438 71.5605 1.13421 71.5605 1.73118C71.5605 2.32815 72.0454 2.81392 72.6412 2.81392C73.237 2.81392 73.7219 2.32815 73.7219 1.73118Z" fill="#1B1F27"/>
<path d="M56.1924 7.34765V10.4613C56.1924 11.3333 56.4007 11.9673 56.8096 12.3478C57.2146 12.7223 57.8786 12.9116 58.7801 12.9116H69.8826C70.2857 12.9116 70.7432 12.8901 71.2417 12.8511C71.7324 12.8121 72.2036 12.6814 72.6397 12.4609C73.0272 12.6814 73.4361 12.8121 73.8547 12.8511C74.285 12.8921 74.7543 12.9135 75.2489 12.9135H102.67C103.227 12.9135 103.665 12.8004 103.975 12.578C104.166 12.4395 104.331 12.2717 104.475 12.0746C104.685 12.3868 104.966 12.6033 105.307 12.7106C105.725 12.8452 106.235 12.9135 106.825 12.9135H112.54C112.941 12.9135 113.321 12.855 113.666 12.7399C113.967 12.6384 114.24 12.418 114.476 12.0824C114.766 12.3926 115.126 12.6267 115.548 12.7789C116.061 12.9623 116.631 13.0559 117.24 13.0559C118.467 13.0559 119.413 12.6755 120.054 11.9225C120.683 11.1811 121 10.0223 121 8.47916C121 6.93602 120.681 5.85133 120.052 5.09828C119.413 4.33354 118.463 3.94531 117.233 3.94531C114.733 3.94531 113.463 5.53919 113.463 8.68206C113.463 8.87324 113.465 9.06053 113.473 9.24586C113.481 9.42729 113.49 9.59702 113.502 9.75894C113.502 10.0867 113.467 10.3442 113.393 10.5471C113.323 10.748 113.235 10.9119 113.136 11.029C113.039 11.1421 112.933 11.2182 112.826 11.2572C112.704 11.3021 112.581 11.3236 112.46 11.3236H106.707C106.163 11.3236 105.729 11.2124 105.414 10.9919C105.12 10.7871 104.978 10.4749 104.978 10.036V7.3457H103.41V9.85259C103.41 10.1277 103.4 10.3715 103.381 10.5822C103.363 10.7636 103.326 10.9236 103.272 11.0387C103.227 11.1304 103.159 11.1987 103.06 11.2436C102.943 11.2962 102.771 11.3236 102.549 11.3236H92.6698C93.1916 10.6134 93.4564 9.70432 93.4564 8.61378C93.4564 7.27937 93.0553 6.21029 92.2609 5.43774C91.484 4.69445 90.4092 4.31598 89.0656 4.31598H83.2632V5.90595H88.8339C89.8328 5.90595 90.6019 6.12055 91.1199 6.54389C91.6631 6.99454 91.9279 7.6715 91.9279 8.61378C91.9279 10.4613 90.9446 11.3216 88.8339 11.3216H75.0931C75.1788 11.2494 75.2625 11.1694 75.3462 11.0855C75.6091 10.8183 75.8427 10.51 76.0394 10.1706C76.2361 9.82917 76.3918 9.46436 76.5009 9.08979C76.6138 8.70742 76.6703 8.30554 76.6703 7.8939C76.6703 7.33985 76.5807 6.81896 76.4035 6.34685C76.2263 5.86888 75.9615 5.44554 75.6208 5.08658C75.2761 4.72567 74.8458 4.44279 74.3415 4.2438C73.8411 4.04481 73.2609 3.94531 72.6183 3.94531C71.9758 3.94531 71.413 4.05456 70.9204 4.26721C70.42 4.48181 69.9955 4.77834 69.6548 5.15096C69.314 5.52163 69.0473 5.95472 68.8643 6.43854C68.6812 6.92236 68.5878 7.43349 68.5878 7.95438C68.5878 8.77765 68.7942 9.51313 69.2011 10.1413C69.4815 10.5764 69.8203 10.9724 70.2117 11.3236H58.5017C58.3147 11.3236 58.0655 11.2943 57.9292 11.1499C57.8182 11.0348 57.7598 10.8085 57.7598 10.4808V7.3457H56.1943L56.1924 7.34765ZM118.899 6.30393C119.254 6.84237 119.435 7.59737 119.435 8.54354C119.435 9.5541 119.258 10.3071 118.907 10.7832C118.572 11.2377 118.015 11.4679 117.252 11.4679C116.489 11.4679 115.936 11.2377 115.607 10.7851C115.262 10.3091 115.089 9.55605 115.089 8.54549C115.089 7.53494 115.264 6.82872 115.613 6.29613C115.948 5.78695 116.483 5.53919 117.252 5.53919C118.021 5.53919 118.559 5.79085 118.899 6.30588V6.30393ZM70.2117 7.97779C70.2117 7.60517 70.274 7.26767 70.3966 6.97308C70.5174 6.6824 70.6887 6.42879 70.9009 6.22199C71.1132 6.01715 71.3663 5.85718 71.6545 5.74598C71.9465 5.63478 72.2698 5.5782 72.6164 5.5782C73.3095 5.5782 73.8878 5.7889 74.3337 6.20443C74.7757 6.61607 74.9996 7.21304 74.9996 7.97779C74.9996 8.3348 74.9334 8.68011 74.803 9.00395C74.6725 9.32975 74.4934 9.62823 74.2734 9.89355C74.0533 10.1589 73.7905 10.391 73.4926 10.5861C73.2141 10.7695 72.9201 10.9236 72.6164 11.0465C72.3126 10.9236 72.0186 10.7695 71.7402 10.5861C71.4422 10.391 71.1755 10.1569 70.9477 9.88965C70.7218 9.62628 70.5388 9.3278 70.4083 9.00395C70.2779 8.68206 70.2136 8.33675 70.2136 7.97779H70.2117Z" fill="#1B1F27"/>
<path d="M16.6379 15.905C16.6379 15.308 16.153 14.8242 15.5572 14.8242C14.9614 14.8242 14.4766 15.31 14.4766 15.905C14.4766 16.5 14.9614 16.9897 15.5572 16.9897C16.153 16.9897 16.6379 16.5039 16.6379 15.905Z" fill="#1B1F27"/>
<path d="M18.023 14.8242C17.4272 14.8242 16.9424 15.31 16.9424 15.905C16.9424 16.5 17.4272 16.9897 18.023 16.9897C18.6189 16.9897 19.1037 16.5039 19.1037 15.905C19.1037 15.3061 18.6189 14.8242 18.023 14.8242Z" fill="#1B1F27"/>
<path d="M52.4551 1.32812H50.8877V12.9534H52.4551V1.32812Z" fill="#1B1F27"/>
<path d="M5.47714 5.58345C6.07296 5.58345 6.55779 5.09768 6.55779 4.50071C6.55779 3.90374 6.07296 3.41797 5.47714 3.41797C4.88132 3.41797 4.39648 3.90374 4.39648 4.50071C4.39648 5.09768 4.88132 5.58345 5.47714 5.58345Z" fill="#1B1F27"/>
<path d="M47.0711 10.5168C47.0711 10.8387 47.0049 11.0611 46.8764 11.1762C46.7382 11.2991 46.5279 11.3615 46.2514 11.3615H41.039V11.3479H40.7294C38.3402 11.3479 38.167 11.3479 37.5069 10.4641C37.612 10.3685 37.7211 10.271 37.834 10.1695C39.8317 8.3474 40.5308 6.50186 40.558 6.42383L40.7469 5.91465L40.3438 5.55178C40.264 5.4796 38.3636 3.77648 35.9161 3.96182C33.6847 4.1374 32.051 5.40157 32.0394 5.41132L31.7259 5.65128V7.18662L32.1679 7.40902C32.1815 7.41683 33.5756 8.12695 34.7128 9.46916C34.925 9.71887 35.1275 9.96663 35.3261 10.2222C33.9417 11.3069 33.2232 11.3498 30.8068 11.3498H29.2803L28.9707 11.3635H20.5864C20.0451 11.3635 19.6109 11.2523 19.2935 11.0318C18.9995 10.827 18.8573 10.5129 18.8573 10.0759V7.34855H17.2899V9.89445C17.2899 10.1676 17.2802 10.4134 17.2626 10.6202C17.2451 10.8055 17.2062 10.9655 17.1517 11.0806C17.1088 11.1723 17.0387 11.2386 16.9414 11.2835C16.8226 11.3362 16.6512 11.3635 16.4293 11.3635H11.9743C11.4641 11.3635 11.0689 11.2542 10.7943 11.0396C10.6346 10.9128 10.5276 10.7411 10.4672 10.5129V7.3466H8.92702V11.0104C8.92702 12.3467 8.64274 13.4236 8.08002 14.2098C7.46473 15.076 6.56905 15.4974 5.33652 15.4974C4.104 15.4974 3.2239 15.076 2.61055 14.2118C2.04783 13.4158 1.76355 12.3389 1.76355 11.0104C1.76355 10.8601 1.76745 7.80115 1.77329 7.66849L1.78692 7.3466H0.161073L0.14939 7.64508C0.145496 7.77579 0.141602 10.9791 0.141602 11.0104C0.141602 12.7369 0.54855 14.1493 1.34882 15.2087C2.26591 16.4241 3.60943 17.0405 5.34236 17.0405C7.0753 17.0405 8.42271 16.4241 9.34954 15.2106C9.89084 14.4966 10.253 13.6109 10.4282 12.5711C10.586 12.6706 10.7534 12.7486 10.9326 12.8013C11.174 12.8734 11.4622 12.9183 11.8185 12.9378C11.9042 12.9476 11.9782 12.9534 12.058 12.9534H16.5519C17.1069 12.9534 17.545 12.8403 17.8565 12.6179C18.0454 12.4794 18.2128 12.3116 18.355 12.1146C18.5653 12.4267 18.8476 12.6432 19.1864 12.7505C19.605 12.8832 20.1132 12.9515 20.6993 12.9534H30.8049C33.4315 12.9534 34.5044 12.8812 36.2821 11.502C37.3414 12.8598 37.943 12.9534 40.7255 12.9534H46.045C46.5513 12.9534 46.9738 12.8988 47.297 12.7896C47.6436 12.6725 47.9123 12.4989 48.1167 12.2531C48.3134 12.017 48.4516 11.7146 48.5276 11.3557C48.5977 11.0162 48.6327 10.6202 48.6327 10.1773V1.32812H47.0653V10.5207L47.0711 10.5168ZM36.7553 8.98339C36.6832 9.04972 36.6131 9.1141 36.543 9.17652C36.3483 8.92876 36.1478 8.68295 35.9336 8.42934C35.0827 7.42658 34.1286 6.73012 33.5367 6.35165C34.076 6.05121 34.9854 5.64153 36.0407 5.55764C37.2012 5.4718 38.2526 6.02975 38.8076 6.39457C38.4804 7.00519 37.8476 7.98844 36.7572 8.98144L36.7553 8.98339Z" fill="#1B1F27"/>
<path d="M64.5786 27.0781L61.2491 33.7033L57.7851 27.0781H56.1904V38.6937H57.7423V30.4512L60.7642 36.0697H61.7261L64.6137 30.5156L64.6254 38.6937H66.1772L66.1636 27.0781H64.5786Z" fill="#1B1F27"/>
<path d="M75.6072 34.1423C75.6072 35.1392 75.391 35.9078 74.9666 36.4248C74.5109 36.9691 73.8294 37.2344 72.8792 37.2344C71.0159 37.2344 70.1474 36.2531 70.1474 34.1442V27.0781H68.5547V34.3764C68.5547 35.7439 68.9363 36.8189 69.686 37.5719C70.4512 38.364 71.526 38.7659 72.8792 38.7659C74.2325 38.7659 75.2956 38.364 76.0725 37.5719C76.8222 36.7955 77.2038 35.7205 77.2038 34.3764V27.0781H75.6091V34.1442L75.6072 34.1423Z" fill="#1B1F27"/>
<path d="M86.2143 32.7666C85.7451 32.476 84.9584 32.1853 83.8096 31.879C83.7395 31.8517 83.6753 31.8341 83.613 31.8244L83.5585 31.8048C82.2461 31.4712 81.8431 31.2001 81.7321 31.0986C81.4186 30.8119 81.2725 30.4978 81.2725 30.1115C81.2725 29.5282 81.4517 29.1165 81.8372 28.8141C82.2091 28.5137 82.7212 28.3615 83.3618 28.3615C84.055 28.3615 84.6235 28.5449 85.05 28.9058C85.4803 29.2726 85.6984 29.7779 85.712 30.4548L85.7256 30.9972H87.3203L87.293 30.4139C87.2366 29.2921 86.8394 28.4045 86.1189 27.7802C85.4238 27.1617 84.5067 26.8477 83.391 26.8477C82.3629 26.8477 81.5043 27.1149 80.8442 27.6378C80.0809 28.2172 79.6934 29.0483 79.6934 30.1115C79.6934 30.9738 80.005 31.6897 80.6203 32.2379C81.0155 32.593 81.8138 32.9286 83.1457 33.3012C83.1807 33.309 83.208 33.3168 83.2294 33.3226L83.3229 33.3558C84.645 33.7089 85.1045 33.9333 85.2661 34.0406C85.7529 34.343 85.9787 34.7643 85.9787 35.3691C85.9787 35.9739 85.7548 36.3953 85.2719 36.7406C84.8299 37.0683 84.2575 37.2342 83.5701 37.2342C82.7835 37.2342 82.1916 37.0254 81.7593 36.5962C81.3232 36.167 81.0778 35.5623 81.0272 34.8014L80.9941 34.2825H79.3975L79.4364 34.8736C79.5143 36.0734 79.9251 37.0254 80.6495 37.6985C81.3738 38.4066 82.3512 38.7656 83.5546 38.7656C84.6742 38.7656 85.6107 38.4847 86.3428 37.9267C87.1704 37.279 87.589 36.3758 87.589 35.2404C87.589 34.1791 87.1295 33.346 86.2202 32.7666H86.2143Z" fill="#1B1F27"/>
<path d="M91.6552 33.3678H96.3225V31.8129H91.6552V28.6486H97.5452V27.0781H90.0469V38.6937H97.6913V37.1232H91.6552V33.3678Z" fill="#1B1F27"/>
<path d="M106.956 34.1423C106.956 35.1392 106.74 35.9078 106.315 36.4248C105.86 36.9691 105.178 37.2344 104.228 37.2344C102.366 37.2344 101.498 36.2512 101.498 34.1442V27.0781H99.9033V34.3764C99.9033 35.7439 100.285 36.8189 101.033 37.5719C101.8 38.364 102.875 38.7659 104.228 38.7659C105.581 38.7659 106.644 38.364 107.423 37.5719C108.173 36.7935 108.552 35.7186 108.552 34.3764V27.0781H106.956V34.1442V34.1423Z" fill="#1B1F27"/>
<path d="M120.987 27.0781H119.402L116.072 33.7033L112.608 27.0781H111.014V38.6937H112.566V30.4512L115.587 36.0697H116.549L119.437 30.5156L119.449 38.6937H121L120.987 27.0781Z" fill="#1B1F27"/>
</svg>
